<svg xmlns="http://www.w3.org/2000/svg" viewBox="0 0 126.2 28.5"><path fill="#1B1B1B" d="M54.714 24.501h-5.5v-9.3h-8.1v9.3h-5.5v-21.1h5.5v7.7h8.1v-7.7h5.5v21.1zm23.1-10.5c0 2-.4 3.7-1.3 5.3-.9 1.6-2 2.7-3.4 3.6-1 .6-2.2 1.1-3.4 1.3-1.2.2-2.7.4-4.4.4h-7.5v-21.2h7.7c1.7 0 3.2.1 4.5.4 1.2.3 2.3.7 3.2 1.2 1.5.9 2.6 2.1 3.4 3.6.8 1.6 1.2 3.3 1.2 5.4zm-5.6 0c0-1.4-.3-2.6-.8-3.6s-1.3-1.8-2.4-2.3c-.6-.3-1.1-.5-1.7-.6-.6-.1-1.5-.2-2.6-.2h-1.4v13.2h1.4c1.3 0 2.2-.1 2.9-.2.6-.1 1.2-.3 1.8-.7 1-.6 1.7-1.3 2.2-2.3.3-.8.6-1.9.6-3.3z"/><path fill="#1B1B1B" d="M98.114 24.501h-6.3l-4.6-7-4.6 7h-6l7.5-10.7-7.3-10.5h6.3l4.4 6.6 4.5-6.6h6l-7.4 10.3 7.5 10.9z"/><path fill="none" stroke="#1B1B1B" stroke-width=".352" stroke-miterlimit="10" d="M10.836 11.482l10.25 14.5m-10.25-14.5l13 3.875m-13-3.875l13.375-7M2.586 21.732l18.625 4.25m-10.375-14.5l-6.25-6.875"/><path fill="#3878BB" d="M16.336 11.482c0 3-2.5 5.5-5.5 5.5s-5.5-2.5-5.5-5.5 2.5-5.5 5.5-5.5c3.125 0 5.5 2.5 5.5 5.5"/><path fill="none" stroke="#1B1B1B" stroke-width=".352" stroke-miterlimit="10" d="M16.336 11.482c0 3-2.5 5.5-5.5 5.5s-5.5-2.5-5.5-5.5 2.5-5.5 5.5-5.5c3.125 0 5.5 2.5 5.5 5.5z"/><path fill="#8A8B8B" d="M23.586 25.982c0 1.375-1.125 2.375-2.375 2.375s-2.5-1.125-2.5-2.375c0-1.375 1.125-2.375 2.375-2.375s2.5 1 2.5 2.375"/><path fill="none" stroke="#1B1B1B" stroke-width=".352" stroke-miterlimit="10" d="M23.586 25.982c0 1.375-1.125 2.375-2.375 2.375s-2.5-1.125-2.5-2.375c0-1.375 1.125-2.375 2.375-2.375s2.5 1 2.5 2.375z"/><path fill="#8A8B8B" d="M26.586 15.357c0 1.375-1.125 2.375-2.375 2.375-1.375 0-2.375-1.125-2.375-2.375s1.125-2.375 2.375-2.375c1.375 0 2.375 1 2.375 2.375"/><path fill="none" stroke="#1B1B1B" stroke-width=".352" stroke-miterlimit="10" d="M26.586 15.357c0 1.375-1.125 2.375-2.375 2.375-1.375 0-2.375-1.125-2.375-2.375s1.125-2.375 2.375-2.375c1.375 0 2.375 1 2.375 2.375z"/><path fill="#EC675F" d="M28.086 4.482c0 2.125-1.75 3.875-3.875 3.875s-3.875-1.75-3.875-3.875S22.086.607 24.21.607s3.875 1.75 3.875 3.875"/><path fill="none" stroke="#1B1B1B" stroke-width=".352" stroke-miterlimit="10" d="M28.086 4.482c0 2.125-1.75 3.875-3.875 3.875s-3.875-1.75-3.875-3.875S22.086.607 24.21.607s3.875 1.75 3.875 3.875z"/><path fill="#8A8B8B" d="M4.96 21.982c0 1.25-1.124 2.375-2.374 2.375-1.375 0-2.375-1.125-2.375-2.375 0-1.375 1-2.5 2.375-2.5 1.25 0 2.375 1.125 2.375 2.5"/><path fill="none" stroke="#1B1B1B" stroke-width=".352" stroke-miterlimit="10" d="M4.96 21.982c0 1.25-1.124 2.375-2.374 2.375-1.375 0-2.375-1.125-2.375-2.375 0-1.375 1-2.5 2.375-2.5 1.25 0 2.375 1.125 2.375 2.5z"/><path fill="#8A8B8B" d="M6.086 3.357c0 1.375-1.125 2.375-2.375 2.375-1.375 0-2.5-1-2.5-2.375S2.336.982 3.586.982c1.375 0 2.5 1.125 2.5 2.375"/><path fill="none" stroke="#1B1B1B" stroke-width=".352" stroke-miterlimit="10" d="M6.066 3.385c0 1.375-1.125 2.375-2.375 2.375-1.375 0-2.375-1-2.375-2.375S2.441 1.01 3.691 1.01s2.375 1 2.375 2.375z"/></svg>